<?xml version="1.0" encoding="UTF-8" standalone="no"?>
<svg width="800" height="600" viewBox="0 0 800 600" xmlns="http://www.w3.org/2000/svg">
  <!-- 背景 -->
  <rect width="800" height="600" fill="white"/>
  
  <!-- 云朵 -->
  <g id="cloud1">
    <path d="M150,100 C120,80 100,120 120,140 C80,160 100,200 130,190 C140,220 180,210 190,190 C220,200 230,170 210,150 C220,120 190,90 150,100 Z" stroke="black" stroke-width="2" fill="none"/>
    <line x1="170" y1="145" x2="170" y2="145" stroke="black" stroke-width="2"/>
  </g>
  
  <g id="cloud2">
    <path d="M650,120 C620,100 600,140 620,160 C580,180 600,220 630,210 C640,240 680,230 690,210 C720,220 730,190 710,170 C720,140 690,110 650,120 Z" stroke="black" stroke-width="2" fill="none"/>
    <line x1="670" y1="165" x2="670" y2="165" stroke="black" stroke-width="2"/>
  </g>
  
  <g id="cloud3">
    <path d="M400,80 C370,60 350,100 370,120 C330,140 350,180 380,170 C390,200 430,190 440,170 C470,180 480,150 460,130 C470,100 440,70 400,80 Z" stroke="black" stroke-width="2" fill="none"/>
    <line x1="420" y1="125" x2="420" y2="125" stroke="black" stroke-width="2"/>
  </g>
  
  <!-- 山 -->
  <g id="mountains">
    <path d="M0,400 Q200,200 400,350 Q600,150 800,400 L800,600 L0,600 Z" stroke="black" stroke-width="2" fill="none"/>
    <line x1="400" y1="375" x2="400" y2="375" stroke="black" stroke-width="2"/>
    <line x1="200" y1="300" x2="200" y2="300" stroke="black" stroke-width="2"/>
    <line x1="600" y1="275" x2="600" y2="275" stroke="black" stroke-width="2"/>
  </g>
  
  <!-- 草地 -->
  <g id="grass1">
    <path d="M100,500 C120,480 130,490 140,500 C150,480 160,490 170,500 Z" stroke="black" stroke-width="2" fill="none"/>
    <line x1="135" y1="490" x2="135" y2="490" stroke="black" stroke-width="2"/>
  </g>
  
  <g id="grass2">
    <path d="M300,520 C320,500 330,510 340,520 C350,500 360,510 370,520 Z" stroke="black" stroke-width="2" fill="none"/>
    <line x1="335" y1="510" x2="335" y2="510" stroke="black" stroke-width="2"/>
  </g>
  
  <g id="grass3">
    <path d="M600,530 C620,510 630,520 640,530 C650,510 660,520 670,530 Z" stroke="black" stroke-width="2" fill="none"/>
    <line x1="635" y1="520" x2="635" y2="520" stroke="black" stroke-width="2"/>
  </g>
  
  <!-- 花 -->
  <g id="flower1">
    <circle cx="200" cy="450" r="20" stroke="black" stroke-width="2" fill="none"/>
    <circle cx="220" cy="430" r="20" stroke="black" stroke-width="2" fill="none"/>
    <circle cx="180" cy="430" r="20" stroke="black" stroke-width="2" fill="none"/>
    <circle cx="200" cy="410" r="20" stroke="black" stroke-width="2" fill="none"/>
    <circle cx="200" cy="430" r="10" stroke="black" stroke-width="2" fill="none"/>
    <line x1="200" y1="430" x2="200" y2="430" stroke="black" stroke-width="2"/>
    <path d="M200,450 L200,500" stroke="black" stroke-width="2" fill="none"/>
    <path d="M190,470 L210,480" stroke="black" stroke-width="2" fill="none"/>
    <path d="M210,470 L190,480" stroke="black" stroke-width="2" fill="none"/>
  </g>
  
  <g id="flower2">
    <circle cx="500" cy="470" r="20" stroke="black" stroke-width="2" fill="none"/>
    <circle cx="520" cy="450" r="20" stroke="black" stroke-width="2" fill="none"/>
    <circle cx="480" cy="450" r="20" stroke="black" stroke-width="2" fill="none"/>
    <circle cx="500" cy="430" r="20" stroke="black" stroke-width="2" fill="none"/>
    <circle cx="500" cy="450" r="10" stroke="black" stroke-width="2" fill="none"/>
    <line x1="500" y1="450" x2="500" y2="450" stroke="black" stroke-width="2"/>
    <path d="M500,470 L500,520" stroke="black" stroke-width="2" fill="none"/>
    <path d="M490,490 L510,500" stroke="black" stroke-width="2" fill="none"/>
    <path d="M510,490 L490,500" stroke="black" stroke-width="2" fill="none"/>
  </g>
  
  <!-- 太阳 -->
  <g id="sun">
    <circle cx="700" cy="100" r="40" stroke="black" stroke-width="2" fill="none"/>
    <line x1="700" y1="40" x2="700" y2="20" stroke="black" stroke-width="2"/>
    <line x1="700" y1="160" x2="700" y2="180" stroke="black" stroke-width="2"/>
    <line x1="640" y1="100" x2="620" y2="100" stroke="black" stroke-width="2"/>
    <line x1="760" y1="100" x2="780" y2="100" stroke="black" stroke-width="2"/>
    <line x1="658" y1="58" x2="644" y2="44" stroke="black" stroke-width="2"/>
    <line x1="742" y1="142" x2="756" y2="156" stroke="black" stroke-width="2"/>
    <line x1="658" y1="142" x2="644" y2="156" stroke="black" stroke-width="2"/>
    <line x1="742" y1="58" x2="756" y2="44" stroke="black" stroke-width="2"/>
    <line x1="700" y1="100" x2="700" y2="100" stroke="black" stroke-width="2"/>
  </g>
  
  <!-- 小鸟 -->
  <g id="bird">
    <path d="M350,150 C370,140 390,160 380,180 C400,170 410,190 390,200 C410,210 400,230 380,220 C390,240 370,250 350,230 C330,250 310,240 320,220 C300,230 290,210 310,200 C290,190 300,170 320,180 C310,160 330,140 350,150 Z" stroke="black" stroke-width="2" fill="none"/>
    <circle cx="340" cy="180" r="5" stroke="black" stroke-width="2" fill="none"/>
    <path d="M360,190 C365,195 370,190 375,195" stroke="black" stroke-width="2" fill="none"/>
    <line x1="350" y1="190" x2="350" y2="190" stroke="black" stroke-width="2"/>
  </g>
  
  <!-- 蝴蝶 -->
  <g id="butterfly">
    <path d="M550,200 C570,180 590,190 580,210 C600,190 610,210 590,220 C610,230 600,250 580,230 C590,250 570,260 550,240 C530,260 510,250 520,230 C500,250 490,230 510,220 C490,210 500,190 520,210 C510,190 530,180 550,200 Z" stroke="black" stroke-width="2" fill="none"/>
    <path d="M550,200 L550,240" stroke="black" stroke-width="2"/>
    <line x1="550" y1="220" x2="550" y2="220" stroke="black" stroke-width="2"/>
  </g>
  
  <!-- 房子 -->
  <g id="house">
    <rect x="100" y="300" width="150" height="100" stroke="black" stroke-width="2" fill="none"/>
    <polygon points="100,300 175,230 250,300" stroke="black" stroke-width="2" fill="none"/>
    <rect x="150" y="350" width="50" height="50" stroke="black" stroke-width="2" fill="none"/>
    <line x1="175" y1="375" x2="175" y2="375" stroke="black" stroke-width="2"/>
    <rect x="120" y="320" width="30" height="30" stroke="black" stroke-width="2" fill="none"/>
    <rect x="200" y="320" width="30" height="30" stroke="black" stroke-width="2" fill="none"/>
    <line x1="135" y1="335" x2="135" y2="335" stroke="black" stroke-width="2"/>
    <line x1="215" y1="335" x2="215" y2="335" stroke="black" stroke-width="2"/>
  </g>
</svg>